<?xml version="1.0" encoding="utf-8"?>
<!-- Generator: Adobe Illustrator 27.5.0, SVG Export Plug-In . SVG Version: 6.00 Build 0)  -->
<svg version="1.1" id="Layer_1" xmlns="http://www.w3.org/2000/svg" xmlns:xlink="http://www.w3.org/1999/xlink" x="0px" y="0px"
	 viewBox="0 0 608.43 298.245" style="enable-background:new 0 0 608.43 298.245;" xml:space="preserve">
<g>
	<g>
		<path style="fill:#3F4144;" d="M512.925,84.283c0,0,7.736,25.729,7.736,93.157s-7.736,67.428-7.736,67.428l-123.725,35.618
			c-55.539,15.989-114.462,15.987-170-0.004l-123.69-35.614c0,0-7.74,0-7.74-67.428c0-65.436,7.74-93.157,7.74-93.157L304.2,119.769
			L512.925,84.283z"/>
	</g>
	<g>
		<polygon style="fill:#4E4F58;" points="304.215,103.468 0,51.88 304.215,0 608.43,51.88 		"/>
	</g>
	<g>
		<path style="fill:#313139;" d="M304.215,103.468L0,51.734v10.363c0,5.665,4.086,10.505,9.671,11.454l294.544,50.09l294.544-50.09
			c5.585-0.95,9.671-5.789,9.671-11.454V51.734L304.215,103.468z"/>
	</g>
	<g>
		<polygon style="fill:#FFD537;" points="221.609,89.46 221.609,89.46 309.622,53.246 292.07,51.851 205.693,86.713 205.693,86.713 
					"/>
	</g>
	<g>
		<ellipse style="fill:#3F4144;" cx="304.215" cy="51.734" rx="21.65" ry="5.316"/>
	</g>
	<g>
		<polygon style="fill:#FFD537;" points="221.609,260.708 205.693,260.708 205.693,86.713 221.609,89.46 		"/>
	</g>
	<g>
		<path style="fill:#FED93B;" d="M213.651,298.245L213.651,298.245c-13.032,0-23.597-10.565-23.597-23.597v-30.26
			c0-5.637,4.569-10.206,10.206-10.206h26.782c5.637,0,10.206,4.569,10.206,10.206v30.26
			C237.249,287.68,226.684,298.245,213.651,298.245z"/>
	</g>
</g>
</svg>
